#!OML:ASF F:\VICON\USERDATA\INSTALL\rory3\rory3.ASF
:FULLY-SPECIFIED
:DEGREES
197
root 4.57977 17.5212 1.02954 14.0367 0.186251 -2.19501
lowerback -4.65591 0.281895 13.1835
upperback -8.5099 0.34303 0.901528
thorax -6.46124 -0.632356 -6.41012
lowerneck -7.57891 9.07671 3.98941
upperneck 31.5905 10.8695 5.09518
head 11.4562 6.03306 2.48688
rclavicle 8.64713e-015 -7.15625e-015
rhumerus 6.50599 -22.9799 8.5045
rradius 116.243
rwrist -64.255
rhand -3.79077 -42.8497
rfingers 7.12502
rthumb 21.9549 -71.6239
lclavicle 8.64713e-015 -7.15625e-015
lhumerus 36.4284 33.204 -4.89699
lradius 38.807
lwrist 36.1247
lhand -27.3868 -21.8371
lfingers 7.12502
lthumb -0.79364 8.14118
rfemur -11.4495 5.08359 -1.01761
rtibia 28.8632
rfoot 16.276 -19.4705
rtoes -12.0571
lfemur -19.0581 2.3784 -28.4058
ltibia 20.9458
lfoot -14.9579 8.1604
ltoes 11.8085
198
root 4.58259 17.517 1.02235 13.9607 0.201583 -2.19203
lowerback -4.61555 0.250547 13.2465
upperback -8.52176 0.308543 0.906608
thorax -6.50757 -0.656771 -6.43924
lowerneck -7.46573 9.04217 3.81708
upperneck 31.8624 10.8583 5.10531
head 11.5265 6.01018 2.52348
rclavicle 9.74045e-015 -1.19271e-014
rhumerus 6.62338 -22.7987 8.15275
rradius 116.222
rwrist -64.0057
rhand -3.46123 -42.7295
rfingers 7.12502
rthumb 22.2712 -71.4662
lclavicle 9.74045e-015 -1.19271e-014
lhumerus 35.9807 32.7156 -5.4147
lradius 39.2086
lwrist 36.9443
lhand -27.6013 -22.0265
lfingers 7.12502
lthumb -1.00086 7.95092
rfemur -11.4886 4.91547 -0.982792
rtibia 29.0373
rfoot 16.8733 -18.7597
rtoes -14.8119
lfemur -19.082 2.35709 -28.4123
ltibia 21.1155
lfoot -15.0208 8.1723
ltoes 11.7853
199
root 4.58331 17.5145 1.01335 13.8572 0.156224 -2.29709
lowerback -4.62825 0.26861 13.3909
upperback -8.41561 0.321027 0.913651
thorax -6.38454 -0.64665 -6.51306
lowerneck -7.56283 8.95675 3.69351
upperneck 32.1426 10.7535 5.11078
head 11.6482 5.94757 2.55399
rclavicle -5.36719e-015 -1.90833e-014
rhumerus 6.6625 -22.7913 7.83604
rradius 116.17
rwrist -63.8947
rhand -3.0938 -42.812
rfingers 7.12502
rthumb 22.6239 -71.5061
lclavicle -5.36719e-015 -1.90833e-014
lhumerus 35.852 32.6911 -5.55222
lradius 39.4685
lwrist 37.3161
lhand -26.2827 -21.9325
lfingers 7.12502
lthumb 0.272702 8.04707
rfemur -11.5755 4.9259 -0.828622
rtibia 29.2667
rfoot 17.0775 -18.4665
rtoes -16.1476
lfemur -19.1582 2.40642 -28.2984
ltibia 21.3837
lfoot -15.1415 8.17192
ltoes 11.9837
200
root 4.58425 17.5105 1.00669 13.8376 0.0408174 -2.28118
lowerback -4.80107 0.330186 13.3932
upperback -8.24649 0.358859 0.877418
thorax -6.08876 -0.602696 -6.55497
lowerneck -7.91311 8.71433 3.62991
upperneck 32.4784 10.4314 4.99808
head 11.8596 5.7764 2.52568
rclavicle 5.66536e-015 -2.94201e-014
rhumerus 6.62622 -22.9607 7.49593
rradius 116.139
rwrist -63.7978
rhand -3.38044 -42.8822
rfingers 7.12502
rthumb 22.3488 -71.6096
lclavicle 5.66536e-015 -2.94201e-014
lhumerus 35.8152 32.8639 -5.52917
lradius 39.7436
lwrist 37.3585
lhand -24.9093 -21.7718
lfingers 7.12502
lthumb 1.59913 8.20194
rfemur -11.7806 4.93757 -0.849247
rtibia 29.503
rfoot 17.1228 -18.2904
rtoes -17.0799
lfemur -19.3168 2.51482 -28.3512
ltibia 21.6699
lfoot -15.2714 8.20568
ltoes 12.1483
201
root 4.58248 17.4954 1.00247 13.8146 -0.039114 -2.2759
lowerback -4.82282 0.352712 13.3796
upperback -8.26652 0.387424 0.887643
thorax -6.0918 -0.588478 -6.53627
lowerneck -7.88998 8.41002 3.72835
upperneck 32.769 10.0812 4.63872
head 12.0069 5.58384 2.35203
rclavicle 2.78299e-015 7.95139e-016
rhumerus 6.61836 -22.7695 7.21507
rradius 116.141
rwrist -63.5224
rhand -4.28266 -42.6174
rfingers 7.12502
rthumb 21.4825 -71.4462
lclavicle 2.78299e-015 7.95139e-016
lhumerus 35.5026 32.5128 -5.74471
lradius 40.2189
lwrist 37.6676
lhand -24.9691 -21.5843
lfingers 7.12502
lthumb 1.54141 8.38989
rfemur -11.9272 4.88852 -0.828625
rtibia 29.7649
rfoot 17.3141 -17.9775
rtoes -18.9944
lfemur -19.4453 2.57314 -28.3827
ltibia 21.9507
lfoot -15.3842 8.29664
ltoes 12.2647
202
root 4.58265 17.4903 1.00099 13.7522 -0.108806 -2.34291
lowerback -4.61111 0.328011 13.4038
upperback -8.39877 0.402375 0.947191
thorax -6.35812 -0.603415 -6.48477
lowerneck -7.70532 8.20697 3.76047
upperneck 33.0209 9.87245 4.37197
head 12.0926 5.46074 2.22639
rclavicle 4.96962e-015 1.11319e-014
rhumerus 6.562 -22.3429 7.08555
rradius 116.216
rwrist -63.3749
rhand -4.49912 -42.2978
rfingers 7.12502
rthumb 21.2746 -71.1502
lclavicle 4.96962e-015 1.11319e-014
lhumerus 35.3966 32.2312 -5.6659
lradius 40.5646
lwrist 37.8482
lhand -26.2564 -21.7137
lfingers 7.12502
lthumb 0.298099 8.26584
rfemur -11.9872 4.88028 -0.690627
rtibia 29.9984
rfoot 17.4528 -17.8201
rtoes -20.9323
lfemur -19.5062 2.64523 -28.3303
ltibia 22.1903
lfoot -15.4572 8.39347
ltoes 12.0406
203
root 4.58185 17.4892 0.993085 13.6831 -0.146986 -2.37682
lowerback -4.39683 0.282192 13.3888
upperback -8.42795 0.380746 0.994069
thorax -6.51786 -0.622869 -6.42563
lowerneck -7.88511 8.06875 3.64693
upperneck 33.4018 9.72453 4.25939
head 12.2858 5.36357 2.21476
rclavicle -4.17448e-015 7.95139e-016
rhumerus 6.50208 -22.1796 6.95981
rradius 116.302
rwrist -63.5614
rhand -3.74556 -42.4946
rfingers 7.12502
rthumb 21.9983 -71.2636
lclavicle -4.17448e-015 7.95139e-016
lhumerus 35.6147 32.4375 -5.18242
lradius 40.7579
lwrist 37.7621
lhand -27.8355 -22.3652
lfingers 7.12502
lthumb -1.22701 7.61105
rfemur -12.0885 4.96217 -0.593029
rtibia 30.2178
rfoot 16.7564 -18.7033
rtoes -19.1875
lfemur -19.5982 2.70243 -28.2972
ltibia 22.4305
lfoot -15.5513 8.43877
ltoes 11.9987
204
root 4.58315 17.488 0.984419 13.5912 -0.0821258 -2.45187
lowerback -4.31804 0.218372 13.4747
upperback -8.30577 0.300135 1.04455
thorax -6.44729 -0.656003 -6.41905
lowerneck -8.36293 7.95238 3.35643
upperneck 33.8186 9.57876 4.31773
head 12.5344 5.26415 2.31311
rclavicle 5.46658e-015 -8.74653e-015
rhumerus 6.5263 -22.3746 6.73398
rradius 116.32
rwrist -63.8802
rhand -2.76664 -42.9681
rfingers 7.12502
rthumb 22.9379 -71.6236
lclavicle 5.46658e-015 -8.74653e-015
lhumerus 35.7175 32.7904 -4.80471
lradius 41.0636
lwrist 37.8283
lhand -28.4477 -22.4939
lfingers 7.12502
lthumb -1.81826 7.47813
rfemur -12.1088 4.98232 -0.441897
rtibia 30.4062
rfoot 16.0789 -19.3437
rtoes -17.3432
lfemur -19.5941 2.6761 -28.1985
ltibia 22.5663
lfoot -15.6605 8.43193
ltoes 12.3563
205
root 4.5868 17.4839 0.977932 13.5437 -0.0131023 -2.48966
lowerback -4.30801 0.14206 13.5293
upperback -8.20723 0.193893 1.10169
thorax -6.368 -0.7002 -6.38722
lowerneck -8.58795 7.88384 3.01688
upperneck 34.0566 9.51931 4.39282
head 12.6523 5.20158 2.4127
rclavicle 1.37161e-014 -2.94201e-014
rhumerus 6.56934 -22.5294 6.4755
rradius 116.319
rwrist -64.0526
rhand -2.69223 -42.9892
rfingers 7.12502
rthumb 23.0093 -71.6358
lclavicle 1.37161e-014 -2.94201e-014
lhumerus 35.6792 33.0335 -4.5935
lradius 41.3384
lwrist 37.956
lhand -27.7968 -22.5884
lfingers 7.12502
lthumb -1.18966 7.38805
rfemur -12.1529 4.84864 -0.351998
rtibia 30.6314
rfoot 15.9707 -19.2129
rtoes -17.9779
lfemur -19.6019 2.66682 -28.1576
ltibia 22.6433
lfoot -15.6908 8.34825
ltoes 12.5283
206
root 4.59026 17.48 0.970022 13.5474 0.0166273 -2.39282
lowerback -4.29352 0.0766735 13.4185
upperback -8.23738 0.112828 1.12109
thorax -6.4228 -0.73779 -6.30324
lowerneck -8.39406 7.80686 2.94143
upperneck 34.254 9.49289 4.20646
head 12.7016 5.1559 2.35079
rclavicle 1.18277e-014 -2.70347e-014
rhumerus 6.53884 -22.3465 6.26669
rradius 116.297
rwrist -63.8378
rhand -3.44734 -42.4563
rfingers 7.12502
rthumb 22.2846 -71.1914
lclavicle 1.18277e-014 -2.70347e-014
lhumerus 35.587 33.0121 -4.48851
lradius 41.6107
lwrist 38.1933
lhand -26.5686 -23.1415
lfingers 7.12502
lthumb -0.00343995 6.83821
rfemur -12.2805 4.67644 -0.438182
rtibia 30.8723
rfoot 15.9958 -19.0895
rtoes -18.3651
lfemur -19.6862 2.66334 -28.2758
ltibia 22.7022
lfoot -15.6768 8.24731
ltoes 12.557
207
root 4.59253 17.4746 0.964305 13.4983 -0.0331841 -2.18261
lowerback -4.20795 0.0465048 13.1981
upperback -8.27639 0.0876249 1.06609
thorax -6.51218 -0.746243 -6.2392
lowerneck -8.2769 7.71823 2.89953
upperneck 34.5536 9.4111 4.11207
head 12.8082 5.10043 2.32074
rclavicle 5.96354e-015 -1.59028e-014
rhumerus 6.57969 -22.3368 5.93315
rradius 116.249
rwrist -63.891
rhand -3.07841 -42.8425
rfingers 7.12502
rthumb 22.6387 -71.5348
lclavicle 5.96354e-015 -1.59028e-014
lhumerus 35.4708 32.8551 -4.4952
lradius 41.9752
lwrist 38.5847
lhand -26.0764 -23.242
lfingers 7.12502
lthumb 0.471951 6.73724
rfemur -12.3877 4.58097 -0.671258
rtibia 31.1195
rfoot 16.5519 -18.4548
rtoes -19.5325
lfemur -19.6865 2.63866 -28.5212
ltibia 22.751
lfoot -15.6662 8.2838
ltoes 12.4311
208
root 4.59379 17.4673 0.961631 13.4551 -0.161494 -1.99293
lowerback -4.16305 0.0408109 12.9847
upperback -8.22667 0.0797921 0.997448
thorax -6.47592 -0.735209 -6.19509
lowerneck -8.46753 7.66945 2.81876
upperneck 34.8349 9.35661 4.10493
head 12.9644 5.06054 2.34966
rclavicle -2.88238e-014 3.33958e-014
rhumerus 6.74083 -22.6487 5.45062
rradius 116.218
rwrist -64.3719
rhand -1.90708 -44.0423
rfingers 7.12502
rthumb 23.7625 -72.593
lclavicle -2.88238e-014 3.33958e-014
lhumerus 35.102 32.6874 -4.94722
lradius 42.4315
lwrist 39.2253
lhand -26.3262 -23.0543
lfingers 7.12502
lthumb 0.23072 6.92535
rfemur -12.5195 4.56079 -0.896632
rtibia 31.352
rfoot 17.3619 -17.5071
rtoes -21.5741
lfemur -19.6597 2.68313 -28.7622
ltibia 22.8035
lfoot -15.7222 8.34797
ltoes 12.3008
209
root 4.59355 17.4616 0.95981 13.4434 -0.282498 -1.96911
lowerback -4.20531 0.0406651 12.9098
upperback -8.1225 0.0637677 0.990585
thorax -6.33597 -0.725729 -6.16191
lowerneck -8.82253 7.58746 2.75281
upperneck 35.1258 9.26077 4.04694
head 13.1663 4.99517 2.36117
rclavicle -3.47873e-015 1.66979e-014
rhumerus 6.70205 -22.6742 5.19405
rradius 116.25
rwrist -64.3694
rhand -1.87753 -44.0197
rfingers 7.12502
rthumb 23.7908 -72.5668
lclavicle -3.47873e-015 1.66979e-014
lhumerus 34.6015 32.6264 -5.57102
lradius 42.9377
lwrist 39.9141
lhand -26.5054 -22.8874
lfingers 7.12502
lthumb 0.0575775 7.09237
rfemur -12.6742 4.6724 -0.921566
rtibia 31.5308
rfoot 17.5923 -17.3459
rtoes -22.2743
lfemur -19.677 2.7505 -28.8122
ltibia 22.8948
lfoot -15.8651 8.38549
ltoes 12.5539
